<svg id="_01-alarm" data-name="01-alarm" xmlns="http://www.w3.org/2000/svg" viewBox="0 0 48 48"><title>01-alarm</title><path d="M17,1H31V2a2.006,2.006,0,0,1-2,2H19a2.006,2.006,0,0,1-2-2Z" style="fill:#e9edf5"/><path d="M39,5V43a4,4,0,0,1-4,4H13a4,4,0,0,1-4-4V5a4,4,0,0,1,4-4h4V2a2.006,2.006,0,0,0,2,2H29a2.006,2.006,0,0,0,2-2V1h4A4,4,0,0,1,39,5Z" style="fill:#9576f0"/><path d="M39,34.046V5a4,4,0,0,0-4-4H31V2a2.006,2.006,0,0,1-2,2H19a2.006,2.006,0,0,1-2-2V1H13A33.982,33.982,0,0,0,39,34.046Z" style="fill:#b785f8"/><path d="M27,35v1a3,3,0,0,1-6,0V35Z" style="fill:#fe8205"/><path d="M24,38a3,3,0,0,1-3-3v1a3,3,0,0,0,6,0V35A3,3,0,0,1,24,38Z" style="fill:#ffb13b"/><path d="M32,31a2,2,0,0,1,0,4H16a2,2,0,0,1,0-4V23a8,8,0,0,1,16,0Z" style="fill:#ffd747"/><path d="M17,33a2.006,2.006,0,0,1,2-2V23a8,8,0,0,1,6.5-7.855A7.985,7.985,0,0,0,16,23v8a2,2,0,0,0,0,4h3A2.006,2.006,0,0,1,17,33Z" style="fill:#ffb13b"/><circle cx="30" cy="15" r="6" style="fill:#ff84be"/><ellipse cx="30.682" cy="32.708" rx="0.825" ry="1.148" transform="translate(-14.142 31.291) rotate(-45.02)" style="fill:#f6fafd"/><ellipse cx="28.427" cy="32.208" rx="0.413" ry="0.574" transform="translate(-14.449 29.55) rotate(-45.02)" style="fill:#f6fafd"/><path d="M30,21a6,6,0,0,0,5.667-4.046,6.986,6.986,0,0,1-10.635-5.316A6,6,0,0,0,30,21Z" style="fill:#fd6d9e"/><path d="M38,43a3,3,0,0,1-3,3H13a3,3,0,0,1-3-3V11H8V43a5.006,5.006,0,0,0,5,5H35a5.006,5.006,0,0,0,5-5V39H38Z"/><rect x="38" y="35" width="2" height="2"/><path d="M35,0H13A5.006,5.006,0,0,0,8,5V9h2V5a3,3,0,0,1,3-3h3a3,3,0,0,0,3,3H29a3,3,0,0,0,3-3h3a3,3,0,0,1,3,3V33h2V5A5.006,5.006,0,0,0,35,0ZM29,3H19a1,1,0,0,1-1-1H30A1,1,0,0,1,29,3Z"/><path d="M37,15a7,7,0,1,0-7,7A7.008,7.008,0,0,0,37,15ZM25,15a5,5,0,1,1,5,5A5.006,5.006,0,0,1,25,15Z"/><path d="M31,18V13a1,1,0,0,0-1.447-.895l-2,1,.894,1.79L29,14.618V18Z"/><path d="M16,32a1,1,0,0,0,1-1V23a7,7,0,0,1,5.25-6.78l-.5-1.936A8.995,8.995,0,0,0,15,23v7.171A3,3,0,0,0,16,36h4a4,4,0,0,0,8,0h4a3,3,0,0,0,1-5.829V23H31v8a1,1,0,0,0,1,1,1,1,0,0,1,0,2H16a1,1,0,0,1,0-2Zm8,6a2,2,0,0,1-2-2h4A2,2,0,0,1,24,38Z"/></svg>