<svg width="300" height="56" viewBox="0 0 300 56" fill="none" xmlns="http://www.w3.org/2000/svg">
<path d="M300 6.40834C300 9.80834 297.3 12.6083 293.9 12.6083C290.5 12.6083 287.7 9.90834 287.7 6.40834C287.7 3.00834 290.4 0.208344 293.8 0.208344C297.2 0.208344 300 3.00834 300 6.40834Z" fill="#00AB52"/>
<path d="M300 37.1084C300 40.5084 297.3 43.3083 293.9 43.3083C290.5 43.3083 287.7 40.6084 287.7 37.1084C287.7 33.7084 290.4 30.9084 293.8 30.9084C297.2 30.9084 300 33.7084 300 37.1084Z" fill="#00AB52"/>
<path d="M4.99999 23.3083C4.69999 23.3083 4.39999 23.3084 4.09999 23.2084C1.59999 22.7084 -0.100006 20.3084 0.399994 17.7084C2.39999 7.50835 11.3 0.108353 21.7 0.108353C24.3 0.108353 26.4 2.20835 26.4 4.80835C26.4 7.40835 24.3 9.50835 21.7 9.50835C15.8 9.50835 10.7 13.7084 9.59999 19.5084C9.19999 21.7084 7.29999 23.3083 4.99999 23.3083Z" fill="#00AB52"/>
<path d="M6.1 33.3083C4.2 33.3083 2.6 32.2083 1.8 30.5083C0.599999 27.7083 0 24.8083 0 21.8083C0 20.4083 0.100002 19.1083 0.400002 17.7083C0.900002 15.2083 3.3 13.5083 5.9 14.0083C8.4 14.5083 10.1 16.9083 9.6 19.5083C9.5 20.3083 9.4 21.0083 9.4 21.8083C9.4 23.5083 9.7 25.2083 10.4 26.8083C11.4 29.2083 10.3 31.9083 8 32.9083C7.4 33.2083 6.8 33.3083 6.1 33.3083Z" fill="#009560"/>
<path d="M15.2 42.2084C14.6 42.2084 14 42.1084 13.4 41.8084C8.20001 39.7084 4.10001 35.6084 1.80001 30.5084C0.700007 28.2084 1.70001 25.4084 4.00001 24.3084C6.30001 23.2084 9.10001 24.2084 10.2 26.5084C10.2 26.6084 10.3 26.6084 10.3 26.7084C11.6 29.6084 14 31.9084 16.9 33.1084C19.3 34.1084 20.4 36.8084 19.4 39.2084C18.8 41.0084 17.1 42.2084 15.2 42.2084Z" fill="#007278"/>
<path d="M81.4 2.80835C78.1 0.908347 74.3 -0.0916523 70.4 0.00834771C66.6 0.00834771 62.8 1.00835 59.6 2.90835C56.4 4.80835 53.7 7.50834 51.9 10.7083C50 14.1083 49 17.8083 49.1 21.7083V50.3083C49.1 51.6083 49.6 52.9083 50.5 53.8083C51.4 54.7083 52.6 55.2083 53.9 55.1083C56.4 55.2083 58.6 53.3083 58.7 50.8083C58.7 50.6083 58.7 50.5083 58.7 50.3083V38.0083C65.2 44.0083 74.8 45.0083 82.3 40.4083C85.4 38.5083 87.9 35.8083 89.5 32.6083C91.3 29.2083 92.2 25.4083 92.1 21.6083C92.1 17.8083 91.2 14.0083 89.3 10.6083C87.3 7.40835 84.6 4.70835 81.4 2.80835ZM81 28.3083C80 30.2083 78.5 31.8083 76.6 32.9083C72.7 35.1083 68 35.1083 64.1 32.9083C62.3 31.8083 60.7 30.2083 59.7 28.3083C58.6 26.3083 58.1 24.0083 58.1 21.7083C58.1 19.4083 58.6 17.1083 59.7 15.0083C62.9 9.10835 70.3 6.90834 76.2 10.2083C76.3 10.3083 76.4 10.3083 76.5 10.4083C78.3 11.5083 79.9 13.1083 80.9 15.0083C82 17.0083 82.6 19.3083 82.5 21.7083C82.7 24.0083 82.1 26.3083 81 28.3083Z" fill="#25215D"/>
<path d="M128.8 2.70834C125.6 0.908339 122 -0.091658 118.4 0.008342C114.6 -0.091658 110.8 0.908341 107.5 2.80834C104.3 4.60834 101.7 7.30834 100 10.6083C98.2 14.0083 97.3 17.9083 97.3 21.8083C97.2 25.7083 98.2 29.5083 100.1 32.9083C102 36.2083 104.7 38.8083 108 40.6083C111.5 42.5083 115.4 43.4083 119.4 43.4083C121.9 43.4083 124.5 42.9083 126.9 42.0083C129.3 41.3083 131.5 40.1083 133.5 38.6083C134.5 37.9083 135.1 36.8083 135.1 35.6083C135 33.2083 132.9 31.3083 130.5 31.3083C129.4 31.3083 128.3 31.6083 127.4 32.3083C126.3 33.1083 125 33.7083 123.7 34.2083C119.2 35.8083 114.2 34.9083 110.4 32.0083C108.3 30.3083 106.8 28.0083 106.2 25.3083H133.3C134.5 25.3083 135.6 24.9083 136.4 24.1083C137.2 23.3083 137.7 22.2083 137.7 21.0083C137.8 17.3083 137 13.5083 135.4 10.2083C134.1 7.00834 131.7 4.40834 128.8 2.70834ZM106.5 17.3083C107.1 14.9083 108.4 12.7083 110.2 11.1083C112.5 9.20834 115.4 8.20834 118.4 8.40834C121.1 8.30834 123.7 9.20834 125.7 11.1083C127.4 12.8083 128.5 15.0083 129 17.4083H106.5V17.3083Z" fill="#25215D"/>
<path d="M175.2 2.30835C172.2 0.70835 168.9 -0.0916494 165.5 0.00835057C163 0.00835057 160.5 0.408348 158.1 1.40835C156.5 2.00835 155 2.90835 153.7 3.90835C153.5 3.10835 153.1 2.30835 152.5 1.70835C150.6 -0.0916524 147.6 -0.0916524 145.6 1.70835C144.7 2.60835 144.2 3.90835 144.2 5.20835V38.4084C144.2 41.1084 146.5 43.2083 149.2 43.2083C150.4 43.2083 151.6 42.7083 152.5 41.8083C153.4 40.9083 153.9 39.7084 153.8 38.4084V17.4083C153.8 15.9083 154.2 14.4083 155.1 13.1083C156 11.8083 157.3 10.7084 158.7 10.0084C160.3 9.20835 162.1 8.80835 164 8.80835C166.9 8.70835 169.8 9.70835 171.9 11.6083C173.8 13.5083 174.8 16.3084 174.8 20.0084V38.3083C174.8 40.9083 176.9 43.1083 179.6 43.1083C182.2 43.1083 184.4 41.0083 184.4 38.3083V19.9083C184.5 16.2083 183.7 12.5083 182 9.20835C180.5 6.30835 178.1 3.90835 175.2 2.30835Z" fill="#25215D"/>
<path d="M230.4 1.60835C228.5 -0.191655 225.5 -0.191655 223.5 1.60835C222.6 2.50835 222.1 3.80835 222.1 5.10835V26.1083C222.1 27.6083 221.7 29.1083 220.8 30.4083C219.9 31.7083 218.6 32.8083 217.2 33.5083C215.6 34.3083 213.8 34.7083 211.9 34.7083C209 34.8083 206.1 33.8083 204 31.9083C202 30.1083 201.1 27.2083 201.1 23.5083V5.00835C201.1 2.40835 199 0.208344 196.3 0.208344C193.7 0.208344 191.5 2.30835 191.5 5.00835V23.3083C191.4 27.0083 192.2 30.7083 193.9 34.1083C195.4 37.0083 197.8 39.4083 200.7 41.0083C203.7 42.6083 207 43.4083 210.4 43.3083C212.9 43.3083 215.4 42.9083 217.8 41.9083C219.4 41.3083 220.9 40.4083 222.3 39.4083C222.5 40.2083 222.9 41.0083 223.5 41.6083C225.4 43.4083 228.5 43.4083 230.4 41.6083C231.3 40.7083 231.7 39.5083 231.7 38.2083V5.00835C231.8 3.70835 231.3 2.50835 230.4 1.60835Z" fill="#25215D"/>
<path d="M278.9 10.7084C277.1 7.40835 274.4 4.70835 271.1 2.90835C267.8 1.00835 264 0.00835381 260.1 0.108354C256.3 0.108354 252.5 1.00836 249.2 3.00836C246 4.90836 243.3 7.60835 241.5 10.8084C239.6 14.2084 238.6 17.9084 238.6 21.8084V50.4084C238.6 51.7084 239.1 53.0084 240 53.9084C240.9 54.8084 242.1 55.3084 243.4 55.2084C245.9 55.3084 248.1 53.4083 248.2 50.8083C248.2 50.7083 248.2 50.5084 248.2 50.4084V38.0084C249.6 39.4084 251.3 40.5084 253.1 41.4084C259.1 44.2084 266.1 43.9084 271.8 40.5084C274.9 38.6084 277.4 35.9084 279 32.7084C280.8 29.3084 281.7 25.5084 281.6 21.7084C281.8 17.8084 280.8 14.0084 278.9 10.7084ZM270.8 28.3084C269.8 30.2084 268.3 31.8084 266.4 32.9084C262.6 35.1084 257.8 35.1084 254 32.9084C252.2 31.8084 250.6 30.2084 249.6 28.3084C248.5 26.3084 247.9 24.0084 248 21.7084C248 19.4084 248.5 17.1084 249.6 15.0084C250.6 13.1084 252.1 11.5084 254 10.4084C257.9 8.20835 262.6 8.20835 266.5 10.4084C268.4 11.5084 269.9 13.1084 270.9 15.0084C272 17.0084 272.6 19.3084 272.5 21.7084C272.6 24.0084 272 26.3084 270.8 28.3084Z" fill="#25215D"/>
<path d="M21.7 43.5084C18.9 43.5084 16.1 42.9084 13.5 41.9084C11.1 40.9084 10 38.2083 11 35.8083C12 33.4083 14.7 32.3083 17.1 33.3083C23.4 35.9083 30.6 32.9083 33.1 26.6083C35.7 20.3083 32.7 13.1083 26.4 10.6083C24.9 10.0083 23.3 9.70835 21.7 9.70835C19.1 9.70835 17 7.60835 17 5.00835C17 2.40835 19.1 0.30835 21.7 0.30835C33.7 0.30835 43.4 10.0084 43.4 22.0084C43.3 33.8084 33.6 43.4084 21.7 43.5084Z" fill="#27235E"/>
</svg>
