<svg xmlns="http://www.w3.org/2000/svg" viewBox="0 0 57.1 87.2"><defs><style>.cls-1{fill:#fff;}</style></defs><title>tap</title><g id="Layer_2" data-name="Layer 2"><g id="Layer_1-2" data-name="Layer 1"><path class="cls-1" d="M50.8,37.4a6,6,0,0,0-3,.5,6.57,6.57,0,0,0-5.9-4.5,6.37,6.37,0,0,0-3.6.8A6.91,6.91,0,0,0,33,30.8a5.69,5.69,0,0,0-2.6.4V24.7a6.81,6.81,0,0,0-6.3-6.9,6.39,6.39,0,0,0-4.9,1.8,6.66,6.66,0,0,0-2.1,4.8V49l-1.9-1.7c-3.1-2.5-5.9-3-8.4-1.6a6.53,6.53,0,0,0-3,4.2,6.93,6.93,0,0,0,1,5.4L20.4,78.8V85a2.22,2.22,0,0,0,2.2,2.2H49.3A2.22,2.22,0,0,0,51.5,85V76.7L56,68.4a8.83,8.83,0,0,0,1.1-4.5V44.2A6.79,6.79,0,0,0,50.8,37.4Zm2.3,17.9L52.7,64a4.75,4.75,0,0,1-.6,2.4l-4.8,8.8a1.93,1.93,0,0,0-.3,1v6.7H24.7V78.2a1.92,1.92,0,0,0-.4-1.2L8.3,53a2.82,2.82,0,0,1-.4-2,2.3,2.3,0,0,1,1-1.4c.4-.2,1.2-.7,3.5,1.1l3.7,3.2a3.21,3.21,0,0,1,1,2.2v1.4a2.2,2.2,0,0,0,4.4,0v-33a2.84,2.84,0,0,1,.7-1.7,2.24,2.24,0,0,1,1.7-.6,2.5,2.5,0,0,1,2.2,2.5V47.5a2.2,2.2,0,0,0,4.4,0v-10a2.84,2.84,0,0,1,.7-1.7,2.11,2.11,0,0,1,1.7-.6,2.5,2.5,0,0,1,2.2,2.5v9.9a2.2,2.2,0,1,0,4.4,0V40a2.84,2.84,0,0,1,.7-1.7,2.72,2.72,0,0,1,1.7-.6,2.5,2.5,0,0,1,2.2,2.5V50.4a2.2,2.2,0,0,0,4.4,0V43.9a2.84,2.84,0,0,1,.7-1.7,2.72,2.72,0,0,1,1.7-.6,2.5,2.5,0,0,1,2.2,2.5Z"/><path class="cls-1" d="M23.5,12.7a2,2,0,0,0,2-1.9V2a2,2,0,0,0-4,0v8.7A2,2,0,0,0,23.5,12.7Z"/><path class="cls-1" d="M32.4,15.4a2,2,0,0,0,1.4-.6L40,8.6a2,2,0,1,0-2.8-2.8L31,12a1.93,1.93,0,0,0,0,2.8A2,2,0,0,0,32.4,15.4Z"/><path class="cls-1" d="M13.2,14.8a1.93,1.93,0,0,0,2.8,0A1.93,1.93,0,0,0,16,12L9.8,5.8A2,2,0,0,0,7,8.6Z"/><path class="cls-1" d="M12.8,21.3a2,2,0,0,0-2-2H2a2,2,0,0,0,0,4h8.8A2,2,0,0,0,12.8,21.3Z"/><path class="cls-1" d="M34,21.3a2,2,0,0,0,2,2h8.8a2,2,0,0,0,0-4H36A2,2,0,0,0,34,21.3Z"/></g></g></svg>