<?xml version="1.0" encoding="utf-8"?>
<!-- Generator: Adobe Illustrator 24.2.1, SVG Export Plug-In . SVG Version: 6.00 Build 0)  -->
<svg version="1.1" id="b41107ec-0743-407f-ab78-90e6ac5363b5"
	 xmlns="http://www.w3.org/2000/svg" xmlns:xlink="http://www.w3.org/1999/xlink" x="0px" y="0px" viewBox="0 0 761.6 504.5"
	 style="enable-background:new 0 0 761.6 504.5;" xml:space="preserve">
<style type="text/css">
	.st0{fill:#FF6584;}
	.st1{opacity:0.42;fill:#3F3D56;}
	.st2{fill:#12141C;}
	.st3{fill:#3F3D56;}
	.st4{fill:#CCCCCC;}
	.st5{fill:#F2F2F2;}
	.st6{fill:#635BFF;}
	.st7{opacity:0.1;enable-background:new    ;}
	.st8{fill:#2F2E41;}
	.st9{fill:#A0616A;}
	.st10{fill:#575A88;}
	.st11{fill:#8985A8;}
	.st12{fill:none;stroke:#2F2E41;stroke-miterlimit:10;}
	.st13{fill:#FFB8B8;}
	.st14{fill:url(#SVGID_1_);}
	.st15{fill:#FFFFFF;}
	.st16{fill:#9F616A;}
	.st17{fill:#FFB9B9;}
	.st18{fill:#6C63FF;}
	.st19{opacity:0.3;enable-background:new    ;}
</style>
<circle class="st0" cx="92" cy="238.6" r="54.3"/>
<path class="st1" d="M349.6,156.7c0,69-41,93-91.6,93s-91.6-24.1-91.6-93S258,0,258,0S349.6,87.7,349.6,156.7z"/>
<polygon class="st2" points="254.7,239.2 255.6,181.5 294.6,110.1 255.8,172.4 256.2,146.5 283.1,94.8 256.3,139.6 256.3,139.6 
	257.1,92.9 285.9,51.8 257.2,85.6 257.6,0 254.7,113.3 254.9,108.6 225.6,63.8 254.4,117.6 251.7,169.7 251.6,168.3 217.9,121.2 
	251.5,173.2 251.2,179.7 251.1,179.8 251.2,180.4 244.2,312.6 253.5,312.6 254.6,244.3 288.2,192.4 "/>
<path class="st1" d="M688.5,195.3c0,81.1-48.2,109.4-107.6,109.4c-59.4,0-107.6-28.3-107.6-109.4S580.9,11.2,580.9,11.2
	S688.5,114.3,688.5,195.3z"/>
<polygon class="st2" points="577,292.3 578.1,224.5 624,140.5 578.3,213.8 578.7,183.3 610.4,122.6 578.9,175.2 578.9,175.2 
	579.8,120.4 613.6,72 579.9,111.7 580.5,11.2 577,144.3 577.3,138.8 542.8,86.1 576.7,149.4 573.5,210.6 573.4,209 533.7,153.6 
	573.3,214.8 572.9,222.4 572.8,222.5 572.8,223.2 564.7,378.6 575.6,378.6 576.9,298.3 616.3,237.3 "/>
<g>
	<polygon class="st3" points="73.3,315.6 65.4,302.3 139.8,238.6 331.1,238.6 331.1,257.2 262,331.6 182.3,347.5 	"/>
	<polygon class="st4" points="364.1,276 364.1,234.4 339,234.4 339,247.5 331.1,238.6 267.4,302.3 256.7,313 243.4,366.1 
		267.4,424.6 389.6,424.6 389.6,305 	"/>
	<rect x="65.4" y="302.3" class="st5" width="202" height="122.3"/>
	<rect x="196.9" y="340.9" class="st3" width="42.5" height="37.2"/>
	<rect x="142.5" y="339.6" class="st4" width="37.2" height="85"/>
	<polygon class="st3" points="99.9,352.8 99.9,339.6 84,339.6 84,352.8 98.6,352.8 	"/>
	<polygon class="st3" points="98.6,363.5 84,363.5 84,376.8 99.9,376.8 99.9,363.5 	"/>
	<rect x="110.6" y="339.6" class="st3" width="15.9" height="13.3"/>
	<rect x="110.6" y="363.5" class="st3" width="15.9" height="13.3"/>
	<polygon class="st3" points="324.5,354.2 324.5,340.9 308.6,340.9 308.6,354.2 323.2,354.2 	"/>
	<polygon class="st3" points="323.2,364.8 308.6,364.8 308.6,378.1 324.5,378.1 324.5,364.8 	"/>
	<rect x="335.1" y="340.9" class="st3" width="15.9" height="13.3"/>
	<rect x="335.1" y="364.8" class="st3" width="15.9" height="13.3"/>
</g>
<g>
	<polygon class="st3" points="445.3,315.6 437.4,302.3 511.8,238.6 703.1,238.6 703.1,257.2 634,331.6 554.3,347.5 	"/>
	<polygon class="st4" points="736.1,276 736.1,234.4 711,234.4 711,247.5 703.1,238.6 639.4,302.3 628.7,313 615.4,366.1 
		639.4,424.6 761.6,424.6 761.6,305 	"/>
	<rect x="437.4" y="302.3" class="st5" width="202" height="122.3"/>
	<rect x="568.9" y="340.9" class="st3" width="42.5" height="37.2"/>
	<rect x="514.5" y="339.6" class="st4" width="37.2" height="85"/>
	<polygon class="st3" points="471.9,352.8 471.9,339.6 456,339.6 456,352.8 470.6,352.8 	"/>
	<polygon class="st3" points="470.6,363.5 456,363.5 456,376.8 471.9,376.8 471.9,363.5 	"/>
	<rect x="482.6" y="339.6" class="st3" width="15.9" height="13.3"/>
	<rect x="482.6" y="363.5" class="st3" width="15.9" height="13.3"/>
	<polygon class="st3" points="696.5,354.2 696.5,340.9 680.6,340.9 680.6,354.2 695.2,354.2 	"/>
	<polygon class="st3" points="695.2,364.8 680.6,364.8 680.6,378.1 696.5,378.1 696.5,364.8 	"/>
	<rect x="707.1" y="340.9" class="st3" width="15.9" height="13.3"/>
	<rect x="707.1" y="364.8" class="st3" width="15.9" height="13.3"/>
</g>
<rect x="408.6" y="345.7" class="st3" width="2" height="79"/>
<path class="st6" d="M429.1,355.7c0.1,27.6-19.3,50.1-19.3,50.1s-19.6-22.3-19.8-49.9s19.3-50.1,19.3-50.1S429,328.1,429.1,355.7z"
	/>
<rect x="44.6" y="343.7" class="st3" width="2" height="79"/>
<path class="st6" d="M65.1,353.7c0.1,27.6-19.3,50.1-19.3,50.1S26.1,381.5,26,353.9s19.3-50.1,19.3-50.1S65,326.1,65.1,353.7z"/>
<path class="st7" d="M65.1,353.7c0.1,27.6-19.3,50.1-19.3,50.1S26.1,381.5,26,353.9s19.3-50.1,19.3-50.1S65,326.1,65.1,353.7z"/>
<rect x="18.6" y="343.7" class="st3" width="2" height="79"/>
<path class="st6" d="M39.1,353.7c0.1,27.6-19.3,50.1-19.3,50.1S0.1,381.5,0,353.9s19.3-50.1,19.3-50.1S39,326.1,39.1,353.7z"/>
<g>
	<polygon class="st3" points="181.2,314.9 173.8,314.9 173.8,321.6 181.9,321.6 181.9,314.9 	"/>
	<path class="st8" d="M166.5,313.8c0,0,0.5,0.6-0.4,1.8s-0.2,3.7,1.5,3.7c1.7,0.1,2.5,0.8,2.1,1.7c-0.4,0.9-0.9,3.2,0.9,2.8
		c1.8-0.3,2.4,0.4,2.1,1c-0.3,0.6,0.8-1.1,0.8-1.1s1,1.5,2.3,0.5c1.3-1.1,1.8-10.8-0.8-11S166.5,313.8,166.5,313.8z"/>
	<polygon class="st9" points="179.6,360.1 180.1,364.2 182.8,364.2 181.9,359.5 	"/>
	<path class="st5" d="M183.1,361.7c0,0,3.5,3.2,2.6,3.5c-0.9,0.3-4.1,3.8-4.7,4.1c-0.5,0.3-6.2,2.1-5.3,0c0.6-1.3,1.7-2.5,2.9-3.2
		l0.6-3.5L183.1,361.7z"/>
	<path class="st8" d="M183.1,361.7c0,0,3.5,3.2,2.6,3.5c-0.9,0.3-4.1,3.8-4.7,4.1c-0.5,0.3-6.2,2.1-5.3,0c0.6-1.3,1.7-2.5,2.9-3.2
		l0.6-3.5L183.1,361.7z"/>
	<polygon class="st9" points="183.1,357 183.7,361.1 186.3,361.1 185.4,356.4 	"/>
	<path class="st9" d="M172,346.1l3.8-12.7c0,0-6.5-5.9-2.1-7.6c4.4-1.8,5.6,7,5.6,7l-1.5,15.3h-5.9L172,346.1z"/>
	<path class="st6" d="M181,336.8c0,0-7.6,9.7-6.4,11.2c1.2,1.4,3.2,10.2,3.2,10.2s-0.3,3.5,0.9,3.5c1.2,0,4.1-0.6,4.1-1.5
		s-2.6-12-2.6-12l7.6-10L181,336.8z"/>
	<path class="st6" d="M181.6,337.4l7.6-4.1c0,0,5.3,2.6,3.8,5c-1.5,2.3-8.2,8.5-8.2,8.5s2.1,10,1.8,10.3c-0.3,0.3-3.5,1.5-4.4,1.2
		c-0.9-0.3-5.6-11.7-4.4-12.3c1.2-0.6,5-6.7,5-6.7L181.6,337.4z"/>
	<path class="st8" d="M160.8,449.6c0,0,5.3,3.2,5.9,3.2c0.6,0,8.5,2.1,5,3.5c-3.5,1.5-17-0.6-16.7-1.5c0.3-0.9,0-6.2,0.6-6.2
		S160.8,449.6,160.8,449.6z"/>
	<path class="st8" d="M166.6,449.2c0,0,5.3,3.2,5.9,3.2s8.5,2.1,5,3.5s-17-0.6-16.7-1.5c0.3-0.9,0-6.2,0.6-6.2
		C161.9,448.3,166.6,449.2,166.6,449.2z"/>
	<path class="st10" d="M160.6,388c0,0,1.4,8,2.9,11.2c1.5,3.2-0.3,18.5-1.2,20.8c-0.9,2.3-9.4,30.2-6.7,30.5c2.6,0.3,7.9,0,7.9,0
		l8.5-26.7l-1.5-35.8L160.6,388z"/>
	<path class="st7" d="M160.6,388c0,0,1.4,8,2.9,11.2c1.5,3.2-0.3,18.5-1.2,20.8c-0.9,2.3-9.4,30.2-6.7,30.5c2.6,0.3,7.9,0,7.9,0
		l8.5-26.7l-1.5-35.8L160.6,388z"/>
	<path class="st10" d="M162.8,387.3c0,0,1.2,7.9,3.8,9.7c2.6,1.8,1.8,3.5,1.8,3.5l-1.2,15.6c0,0-11.4,28.2-7.9,31.7
		c3.5,3.5,6.7,2.1,8.2,1.8c1.5-0.3,4.1-6.5,2.6-8.2s2.9-12.3,4.1-14.1c1.2-1.8,0-4.1,1.5-4.7c1.5-0.6,4.7-4.4,4.7-7
		s4.1-30.8,1.5-32.6c-2.6-1.8-19.6,3.6-19.6,3.6L162.8,387.3z"/>
	<circle class="st9" cx="157.2" cy="339.7" r="6.5"/>
	<circle class="st9" cx="171.9" cy="316.2" r="5.3"/>
	<path class="st9" d="M161.6,339.7c0,0,3.5,6.5,5.3,6.5c1.8,0-7,6.7-7,6.7s-2.9-8.5-3.5-8.8C155.8,343.8,161.6,339.7,161.6,339.7z"
		/>
	<path class="st11" d="M162.8,345.6c0,0-7.6,2.6-7.3,3.5c0.3,0.9-2.1,2.9-2.1,3.8s-0.6,8.8,2.9,15.3c3.5,6.5,9.1,11.2,6.5,14.1
		c-2.6,2.9-6.7,7.9-2.3,7.9s11.4-6.5,17.9-4.1c6.5,2.3,5-6.5,5-6.5s0.9-6.7-0.9-8.8s-7.9-16.7-7.9-18.5s-5.9-8.5-7.3-8.5
		C165.8,343.8,162.8,345.6,162.8,345.6z"/>
	<path class="st12" d="M171.9,319.5"/>
	<path class="st13" d="M173.4,319.5c0,0,2.4,4.5,2.5,5.4c0.1,0.8,4.2-5.4,4.2-5.4l-4.7-3.2L173.4,319.5z"/>
	<path class="st5" d="M174.3,323l5-5.3l5.9,2.6c0,0,5.5,12,5.8,12.9c0.3,0.9-8.8,5-9.6,5c-0.9,0-7-9.1-7-9.1S172.8,324.7,174.3,323z
		"/>
	<polygon class="st9" points="171.9,330 171.9,335.3 175.4,335.3 174.3,330 	"/>
	<path class="st9" d="M173.9,334c-0.9,0-1.7,0.5-2.1,1.4c-0.2,0.6-0.2,1.3,0.9,1.5c2.3,0.6,2.6,0,2.6,0s4.1-0.6,3.2-1.8
		c-0.9-1.2-3.2-1.2-3.2-1.2H173.9z"/>
	<path class="st3" d="M186.6,359.4c0,0,3.5,3.2,2.6,3.5c-0.9,0.3-4.1,3.8-4.7,4.1c-0.5,0.3-6.2,2.1-5.3,0c0.6-1.3,1.7-2.5,2.9-3.2
		l0.6-3.5L186.6,359.4z"/>
	<path class="st8" d="M154.9,334.7c0.4-0.2,0.9-0.5,0.9-1c0-0.4-0.2-0.7-0.6-0.8c-0.3-0.1-0.7-0.2-1-0.1c-0.1,0-0.3,0-0.4,0
		c-0.3,0.1-0.5,0.4-0.8,0.7c-0.4,0.3-0.9,0.5-1.4,0.6c-0.8,0.2-1.6,0.5-2.3,1c-0.1,0.1-0.3,0.2-0.4,0.3c-0.1,0.2-0.2,0.5-0.1,0.8
		c-0.1,1-0.7,1.9-1.1,2.8c-0.4,0.9-0.7,2-0.2,2.9c0.2,0.3,0.4,0.5,0.6,0.8c0.4,0.8-0.1,1.7,0.2,2.5c0.1,0.3,0.3,0.6,0.6,0.8
		c0.5,0.5,1.2,0.9,1.8,1.1c0.7,0.2,1.5,0.3,1.8,1c0.1,0.3,0.1,0.6,0.2,0.9c0.2,0.3,0.6,0.5,1,0.5c0.4,0.1,0.8,0.1,1.2,0.1
		c0.4,0,0.8-0.2,1.1-0.6c0.1-0.2,0.3-0.4,0.4-0.6c0.4-0.4,1.1-0.1,1.6-0.2c0.5-0.1,0.8-0.4,0.9-0.9c0-0.2,0.1-0.5,0.2-0.7
		c0.3-0.4,1.2-0.1,1.5-0.6c0.1-0.3-0.2-0.7-0.5-0.9c-0.5-0.3-1-0.6-1.4-1c-0.5-0.4-0.7-1-0.6-1.6c0.2-0.9,1.3-1.3,1.3-2.2
		c0-0.5-0.3-1-0.7-1.2c-0.4-0.3-0.8-0.5-1.2-0.9c-0.3-0.3-0.5-0.6-0.7-0.8c-0.6-0.4-1.2-0.5-1.9-0.5c-0.4,0-1.8-0.2-1.7-0.7
		C153.1,335.7,154.6,335,154.9,334.7z"/>
	<path class="st5" d="M174.3,322.7c0,0-3.2,1.2-3.2,2.6s-1.5,6.2,0,6.2c1.5,0,4.4-1.1,4.4-1.1L174.3,322.7z"/>
	<path class="st9" d="M173.4,343.8c0,0,8.5-2.9,8.8-2.9s4.4-2.3,4.1-3.2l-1.2-7.3c0,0-4.7-9.7-1.5-9.7c3.2,0,5,7.6,5,7.6
		s7,13.2,3.2,16.1c-3.8,2.9-19.7,8.2-20.5,7.3C170.5,350.9,173.4,343.8,173.4,343.8z"/>
	<path class="st9" d="M181.6,324.7l2,1.9l-2.6,2.5c0,0-3.5-1.5-3.2-0.6c0.3,0.9,2.1,3.5,3.2,3.5c1.2,0,7.3-3.8,7.3-5
		c0-1.2-3.8-5.3-4.7-5.6C182.8,321.2,181.6,324.7,181.6,324.7z"/>
	<path class="st5" d="M177.9,322.7c0,0,4.3,3.8,4.9,3.8s1.7-5.7,1.7-5.7s-3.5-2.3-4.8-1.6C178.4,319.8,177.9,322.7,177.9,322.7z"/>
	<path class="st11" d="M162.8,347.3c0,0,0-4.1,8.8-4.1h3.8l-1.8,9.7l-5.9,1.8L162.8,347.3z"/>
	<path class="st8" d="M182.1,314.1c-0.9,0-1.7-0.1-2.6-0.2c-0.7-1.6-1.5-3-2.5-3.5c-0.7-0.6-1.6-1-2.5-1.4c-2-0.8-5.2-0.3-5.4,0.6
		c-3.8,1.8-2.9,5.1-2.9,5.1c0.6,1.3,1.9,0.7,3.1,0.1c0.2,0.9,1,1.6,2,1.7c1.9,0.1,2.8,0.9,2.3,1.9c-0.5,1-1,3.5,1,3.1
		c2-0.4,2.7,0.4,2.3,1.1c-0.4,0.6,0.9-1.2,0.9-1.2s1.1,1.7,2.5,0.5c0.1-0.1,0.2-0.3,0.3-0.5c0.4,0.3,1,0.4,1.5,0.3
		c1.7-0.8,0.6-2.5,0.6-2.5s2.2-0.3,1.5-0.3c-0.7,0.1-1.2-0.9,0-2.6S183.2,314.1,182.1,314.1z"/>
	
		<rect x="168.5" y="313.5" transform="matrix(0.3158 -0.9488 0.9488 0.3158 -181.6037 375.9528)" class="st6" width="2.6" height="0.9"/>
</g>
<image style="overflow:visible;" width="814" height="529" xlink:href="B5D726E3.jpg"  transform="matrix(1 0 0 1 383.2433 -830.0394)">
</image>
<radialGradient id="SVGID_1_" cx="1442.7273" cy="-109.5208" r="217.9906" fx="1441.8921" fy="-327.5098" gradientUnits="userSpaceOnUse">
	<stop  offset="0" style="stop-color:#CCCCCC"/>
	<stop  offset="1" style="stop-color:#12141C"/>
</radialGradient>
<rect x="1140.1" y="-168.5" class="st14" width="605.2" height="117.9"/>
<g>
	<path class="st6" d="M247.3,304.4c-7.6,4.6-21.2,10.3-35,4.4l-9-3.8l17.9-20.1c-31.8-35.1-29.2-89.3,5.9-121.1s89.3-29.2,121.1,5.9
		s29.2,89.3-5.9,121.1C316.4,314.3,278.7,319.7,247.3,304.4z"/>
	<g>
		<rect x="227.5" y="209.3" class="st15" width="114.4" height="8.4"/>
		<rect x="227.5" y="223.3" class="st15" width="114.4" height="8.4"/>
		<rect x="227.5" y="237.3" class="st15" width="114.4" height="8.4"/>
	</g>
</g>
<g>
	<path class="st6" d="M562.9,323.9c-16.6-15.1-17.9-40.8-2.8-57.4c15.1-16.6,40.8-17.9,57.4-2.8c16.6,15.1,17.9,40.8,2.8,57.4
		l8.5,9.5l-4.2,1.8c-6.6,2.8-13,0.1-16.6-2.1C593,337.6,575.2,335.1,562.9,323.9z"/>
	<g>
		<rect x="563.1" y="285.2" class="st15" width="54.3" height="4"/>
		<rect x="563.1" y="291.9" class="st15" width="54.3" height="4"/>
		<rect x="563.1" y="298.5" class="st15" width="54.3" height="4"/>
	</g>
</g>
<g>
	<g>
		<path class="st4" d="M501.7,498.1c-1.5,0-3-0.3-4.4-0.8l-60.4-23.1c-2.1-0.8-3.9-2.1-5.3-3.9l-4.2-5.3c-0.5-0.7-0.4-1.6,0.3-2.1
			c0.7-0.5,1.6-0.4,2.1,0.3l4.2,5.3c1,1.3,2.4,2.3,4,2.9l60.4,23.1c2,0.8,4.3,0.8,6.3,0.1l3.7-1.3c0.8-0.3,1.6,0.1,1.9,0.9
			c0.3,0.8-0.1,1.6-0.9,1.9l-3.7,1.3C504.4,497.9,503,498.1,501.7,498.1z"/>
	</g>
	<g>
		<g>
			<path class="st9" d="M528,366l13.5-2.6c0,0,3.3-11.2,7.2-9.8c3.9,1.3-2.6,12.5-2.6,12.5l-18.7,8.5L528,366z"/>
			<path class="st9" d="M446.3,377.1l-5.9,7.5c0,0-8.5-0.3-5.9,4.3c2.6,4.6,8.5,2,8.9,1c0.3-1,9.8-9.5,9.8-9.5L446.3,377.1z"/>
			<path class="st6" d="M470.4,368.4l4.9-2.6c0,0,21-1.6,28.9,3.6c7.9,5.3-33.1,5.9-33.1,5.9L470.4,368.4z"/>
			<path class="st3" d="M479.7,363.7c0,0-2.6-6.2,1-6.9c2.1-0.4,4.2-0.4,6.2,0L483,360L479.7,363.7z"/>
			<path class="st7" d="M479.7,363.7c0,0-2.6-6.2,1-6.9c2.1-0.4,4.2-0.4,6.2,0L483,360L479.7,363.7z"/>
			<path class="st8" d="M461.7,401.4l-9.5-0.7l1.6,3c0,0-13.1,3.9-8.9,15.1c3,7.5,6.6,14.8,10.8,21.7l4.3,8.2c0,0,8.9,1.3,9.2-1.3
				c0.3-2.6,0-3.9-1.6-5.3c-1.5-1.4-2.4-3.2-2.6-5.3c0-1.3,0.3-2.6-0.7-3.3c-1-0.7-1.3-1.6-1.3-3.6c0-2-3.6-9.2-3.6-9.2
				s11.5-0.3,15.1,2.6c3.6,3,15.4,14.1,15.4,14.1c0.7,0.7,1.2,1.5,1.6,2.3c0.7,1.3,0.7,2,2,2.6c1.3,0.7,0.3,3.3,0,3.6
				c-0.3,0.3-3.6,13.5-3.6,13.5s-3.6,6.2,0.3,6.6c3.9,0.3,7.5,0.7,7.9,0c0.4-0.9,0.8-1.8,1.3-2.6c1-1.6,0-5.3,0-5.3
				s9.5-12.1,6.6-19.7c-3-7.5-9.2-24.6-9.2-24.6l-9.5-3.9l-17.4-6.2L461.7,401.4z"/>
			<path class="st5" d="M461,447c0,0-2,7.5-2.6,7.9c-0.7,0.3-7.9,6.6-3,7.5c4.9,1,8.5,0.7,9.5-0.3c1-1,0.7-2,2.3-2.3
				c1.6-0.3,4.6-1.3,4.3-3.6s-2-8.5-3-9.2C467.6,446.4,461,447,461,447z"/>
			<path class="st5" d="M489.6,463.8c0,0-3,2.3-1.3,6.6s3.9,8.9,3.9,8.9s2.6,8.2,6.9,6.9c1.6-0.6,2.7-1.9,3-3.5
				c0.6-2.4,0.2-4.9-1.2-6.9l-2.5-3.7l-2.6-6.9L489.6,463.8z"/>
			<path class="st9" d="M481.4,367.3c0,0-3.9-0.3-4.6,0.7c-0.7,1-3.6,14.1,0,15.4c3.6,1.3,14.4,3.6,16.1,2s2.3-16.1,2.3-16.1
				L481.4,367.3z"/>
			<path class="st7" d="M481.4,367.3c0,0-3.9-0.3-4.6,0.7c-0.7,1-3.6,14.1,0,15.4c3.6,1.3,14.4,3.6,16.1,2s2.3-16.1,2.3-16.1
				L481.4,367.3z"/>
			<path class="st5" d="M475.5,378.1c0,0,4.6,4.6,7.5,3.9c3-0.7,9.8-3.6,10.5-4.9c0.7-1.3,8.9-1.6,8.9-1.6l-8.9,24.6l6.2,20.7
				c0,0,3.6-4.3-6.2-4.6s-23-5.3-25.3-11.8c0,0-14.4-2-15.1-2.3c-0.7-0.3,1.6-2.3,1.6-2.3l9.5-2.6l6.9-8.9L475.5,378.1z"/>
			<path class="st6" d="M478.4,367.9c0,0,1.6-2.3,0-2.3c-2.6-0.1-5.3,0.1-7.9,0.3c-1.6,0.3-7.9-1.3-8.5,0.7
				c-0.7,2-0.7,14.1,0.7,15.1c1.3,1,2,1,0.3,3c-1.6,2-5.6,8.5-4.6,10.8c1,2.3-10.5,3-8.9,5.6c0.9,1.5,2.5,2.5,4.3,2.6
				c0,0,0.7-5.3,4.6-2.6c3.9,2.6,9.2,9.2,13.5,4.9s5.9-8.2,6.2-13.8c0.3-4.2,0.1-8.4-0.7-12.5C476.8,376.5,478.4,367.9,478.4,367.9z
				"/>
			<path class="st6" d="M495.5,374.2c0,0,2.6,2.3,0,7.9c-2.6,5.6-9.5,18.7-3.9,27.2s7.9,10.8,6.6,12.5c-0.8,1-1.3,2.3-1.3,3.6
				l3.6-1.3c0.4-2.7,1.1-5.3,2-7.9c1.3-3.3-2.6-13.1-2.6-13.1l1.3-12.8c0,0,5.3-8.2,5.9-8.5s-1.3-14.4-1.3-14.4s-3.3-1-4.9,0
				S495.5,374.2,495.5,374.2z"/>
			<path class="st6" d="M464,366.9h-2l-13.5,6.9c0,0-1-4.3-1.6-3.3c-0.7,1-0.3,3.6-2,4.3c-1.6,0.7-2.6,1.6,0,3c2.6,1.3,3,0.3,3,2.6
				c0,2.3,2,2.6,3.6,2c1.6-0.7,2-1,3.6-0.3c1.6,0.7,0.7,1.6,3,0.7s8.2-0.7,8.2-0.7L464,366.9z"/>
			<path class="st6" d="M503.4,367.9l2.3-0.7c0,0,6.9,0.7,8.5,0.7s3.3-0.3,4.3-0.3c1,0,5.9-0.7,6.6-1.3c0.7-0.7,3.6-2.3,3.9-1.3
				c0.3,1,3.9,7.2,0.7,10.2c-3.3,3-3.9,1.6-5.9,3c-2,1.3-17.7,3.9-18.1,3.6C505.3,381.4,503.4,367.9,503.4,367.9z"/>
			<circle class="st9" cx="489.9" cy="370.5" r="9.8"/>
			<path class="st8" d="M482.7,370.9c0.1,0.2,0.2,0.4,0.2,0.7c0.3,1.1,1.3,2,2.5,2c-0.2,0.8,0.3,1.7,1.2,1.8c0.1,0,0.1,0,0.2,0
				c0.7-0.9,1.2-1.8,1.5-2.9c0.1-0.4,0.2-0.8,0.5-1.1c0.4-0.3,0.9-0.5,1.4-0.5c2.6-0.3,5.3-0.5,7.9-0.6c0.4,0,0.7,0,1-0.2
				c0.7-0.5,0.5-1.6,0-2.4c-0.9-1.5-2.3-2.6-4-3.1c-1.2-0.3-2.4-0.5-3.7-0.6c-1.6-0.3-3.3-0.4-4.9-0.5c-1.7-0.1-3.3,0.4-4.7,1.3
				c-1,0.7-2.6,2.6-1.8,3.9c0.1,0.2,0.5,0.3,0.7,0.5c0.2,0.3,0.2,0.7,0.5,0.9C481.5,370.6,482.3,370.4,482.7,370.9z"/>
			<path class="st3" d="M489.9,354.1c0,0-11.2,3.9-10.2,9.5s3.9,12.1,10.2,11.8c6.2-0.3,9.5-7.1,9.5-7.1l-1.6-9.3
				C497.8,359.1,491.5,354.1,489.9,354.1z"/>
			<path class="st8" d="M488.5,373.8c0,0,4.4-4.8,6.6-2C495.1,371.8,495,371.7,488.5,373.8z"/>
			<circle class="st8" cx="437.9" cy="481.5" r="3.9"/>
			<circle class="st8" cx="486.9" cy="500.6" r="3.9"/>
		</g>
		<path class="st6" d="M455.1,341.9L455.1,341.9c-2.2,0.1-4-1.5-4.1-3.7l-0.8-12.7c-0.1-2.2,1.5-4,3.7-4.1l0,0
			c2.2-0.1,4,1.5,4.1,3.7l0.8,12.7C458.9,339.9,457.2,341.8,455.1,341.9z"/>
		<path class="st6" d="M455.7,353.4L455.7,353.4c-2.2,0.1-4-1.5-4.1-3.7l0,0c-0.1-2.2,1.5-4,3.7-4.1h0c2.2-0.1,4,1.5,4.1,3.7v0
			C459.5,351.4,457.9,353.3,455.7,353.4z"/>
	</g>
</g>
<g>
	<path class="st8" d="M295.3,364.1l0.3-1.9l0.3,2l0.9,0c-0.6-2.4-0.7-4.6-0.1-6.8c0.5-1.6,0-3.4-1.1-4.4c-0.6-0.5-1.3-0.8-2.1-0.8
		L291,352c-1.6,0-2.9,1-3.5,2.6c-0.2,0.6-0.3,1.3-0.2,1.9c0.2,2.4,0.1,4.9-0.3,7.3L295.3,364.1z"/>
	<path class="st16" d="M289.9,358.4c0,0,1.6,4.1-3,4.7s4,5.2,4,5.2l5.9-3.1c0,0-4.8-3.4-3.3-6.5L289.9,358.4z"/>
	<path class="st7" d="M289.9,358.4c0,0,1.6,4.1-3,4.7s4,5.2,4,5.2l5.9-3.1c0,0-4.8-3.4-3.3-6.5L289.9,358.4z"/>
	<polygon class="st16" points="279.3,416.5 277.9,420.5 281.4,420.5 282,417.4 	"/>
	<polygon class="st16" points="292.3,416.5 292.3,419.5 294.4,419.5 294.7,415.8 	"/>
	<path class="st8" d="M279.5,419.1c0,0-1.8-1.2-1.9-0.6c-0.1,0.6-1.4,4.1-3.5,4.4s-4.1,1.4-1.8,1.8c2.4,0.4,6-0.1,6.5-0.5
		c0.5-0.4,0.6,0.1,0.6,0.1s2.8-0.2,2.8-0.3s-0.1-1.1,0-1.4c0.1-0.3-0.3-1.7-0.3-1.7l0.3-2.4c0,0-1.2,0.2-1.2,0.3
		S279.5,419.1,279.5,419.1z"/>
	<path class="st8" d="M293.1,418.2c0,0-1.2-0.4-1.2,0s-1.1,6.1-0.6,6.4c0.5,0.3,3.3,0.6,3.7-0.3c0.4-0.9-0.3-2.8-0.3-2.8
		s-0.4-1.6,0-1.8C295.1,419.5,295.3,418,293.1,418.2z"/>
	<path class="st8" d="M284.7,382.6l-3.3,21.5c0,0-4.6,12.7-2.4,13.3c2.2,0.5,2.2,1.5,3.5,0.7c1.3-0.7,3.5-13.1,3.5-13.1l4.9-14.1
		l1.4,14.4c0,0-1.4,12-0.3,12c1.2,0,3.9,0.4,4.2-0.2c0.3-0.6,1.3-14.2,1.3-14.2s2.7-18.5-0.5-20S284.7,382.6,284.7,382.6z"/>
	<circle class="st16" cx="292.1" cy="357" r="3.7"/>
	<path class="st6" d="M287.6,364.2c0.2,0.1,0.4,0.2,0.5,0.3c0.6,0.5,2,1.4,3.9,1.2c2.5-0.3,4.1-1.1,4.1-1.1s2.8,0.8,3.1,1.8
		s-2.4,6.7-2.4,6.7s-1,2.2-0.3,3.6c0.7,1.4,1.5,5.2,1.9,5.9c0.4,0.7,0.8,3.3-0.3,2.3c-1.2-1-3.5-3.3-7.3-2.3c-3.7,1-7.8,1.4-7.5,1
		c0.3-0.3,1-9.7,1-9.7l-1.5-9c0,0,1.6-2.7,4.7-2C287.5,363,287.1,363.9,287.6,364.2z"/>
	<path class="st16" d="M282.1,382.5l2.2,3.2c0,0,1.8-0.1,1.8-1c0,0,1,0.7,1.2,0.3c0.3-0.4-1.2-2-1.6-2.2s-1.4-0.4-1.6-0.6
		c-0.2-0.2-0.9-1-0.9-1L282.1,382.5z"/>
	<path class="st16" d="M296.1,381c0,0-2,0.7-2.6,1.6c-0.7,0.8-1.6,1.6-1.2,1.6s1.6-0.5,1.6-0.5s1.2,2.2,2.7,0.9l1.1-1.6
		C297.6,383,297.4,380.7,296.1,381z"/>
	<path class="st6" d="M283.8,364.9h-1c0,0-3.4,7.7-2.5,11.6s1.6,6.4,2,6.5c0.3,0.1,0.7-1.4,1.5-1.2c0,0-0.7-4.5-0.3-4.7
		c0.3-0.3,0.3-0.8,0.3-1.5c0.1-0.7,1-2.7,1-2.7L283.8,364.9z"/>
	<path class="st6" d="M297.7,366.3l1.6,0.2c0,0,0.8,2.4,0.9,4.1s0.2,2.4,0.4,3.1c0.2,0.6-0.6,2.9-0.5,3.7s-2.8,6.4-2.8,6.1
		c0-0.3-0.9-2.7-1.5-2.4c0,0,0.5-1.4,1-1.7c0.5-0.3,0-3,0-3l-0.5-4.3L297.7,366.3z"/>
	<rect x="288.8" y="353" class="st8" width="6.9" height="3.1"/>
	
		<ellipse transform="matrix(0.9696 -0.2449 0.2449 0.9696 -78.7764 81.4918)" class="st16" cx="288.4" cy="357.6" rx="0.2" ry="0.6"/>
</g>
<g>
	<path class="st17" d="M637.3,413.3c0,0,0.2,6.7,0.4,8.6c0.2,1.9-2.3,4.4-2.3,4.4l2.3,2.9l3.8-3.3c-1.3-3.1,1.7-11.7,1.7-11.7
		L637.3,413.3z"/>
	<path class="st8" d="M629.4,428.7c0.4-0.2,0.8-0.3,1.2-0.4l4.6-2.5c0,0,0-1.9,1.3-1.7c0.2,0,0.3,0.1,0.4,0.2c0.6,0.5,0,1.9,0,1.9
		s1.7,0.4,2.7,0.6c1,0.2,1.5-1.5,1.7-1.8c0,0,0,0,0,0c0,0,0,0,0,0c0.1-0.2,0.8,2,1.3,3.7c0.2,0.7,0.3,1.4,0.4,1.7
		c0,0.3-0.1,0.6-0.3,0.7h-12.9c-0.1-0.1-0.3-0.2-0.5-0.3C627.6,429.9,628.5,429.1,629.4,428.7z"/>
	<path class="st17" d="M646.9,412.4c0,0,3.5,4.2,5,4.8c1.5,0.6,2.9,4.4,2.9,4.4l1.7,0.6l1.9-1.5l-1.5-3.3l-5.4-6.5L646.9,412.4z"/>
	<path class="st8" d="M641.9,405.2l3.1-1.3l1.8-0.8l0.4,0.5l1.6,1.9l4.8,6c0,0-2.5,2-5,3c-0.4,0.2-0.8,0.3-1.2,0.4
		c-0.9,0.2-1.8,0.2-2.4-0.1l-2-3.7l-2.8-5.1L641.9,405.2z"/>
	<path class="st17" d="M648.9,360.7L648.9,360.7c-0.7,0.4-1.1,1.3-0.8,2l3.3,9.4l-1,9.5c0,0-2.2,4.8-0.1,5.2
		c2.1,0.4,2.1-4.4,2.1-4.4l2.3-11.6l-2.2-9.1C652,360.4,650.2,359.9,648.9,360.7z"/>
	<path class="st17" d="M648.6,353.1c0,0.6,1.5,4.8,1.5,4.8l-3.5,1.9l-1.9-5.8C644.7,353.9,648.6,352.5,648.6,353.1z"/>
	<circle class="st17" cx="646.1" cy="351.8" r="4.4"/>
	<path class="st18" d="M643.1,364.5c-2.7,2.3-1.3,5.6-1.3,5.6l-1.5,5.4l8.3,0.8l3.7-8.6c1.2-2.7,1.3-5.7,0.3-8.5
		c-0.4-1.1-0.9-2-1.6-2.3c-2.3-1.3-5,2.3-5,2.3l-0.2,1l-0.8,0.8L643.1,364.5z"/>
	<path class="st19" d="M641.9,405.2l3.1-1.3l1.8-0.8l0.4,0.5l0,0.2c-0.7,4.5,0.2,10.1,0,11.2c-0.9,0.2-1.8,0.2-2.4-0.1l-2-3.7
		l-2.8-5.1L641.9,405.2z"/>
	<path class="st8" d="M640.1,385c-3.5,2.5-4.6,28.4-4.6,28.4c3.1,2.3,10,1.9,10,1.9s2.9-19.6,4.8-27.1c1.9-7.5-1.3-11.1-1.3-11.1
		l0.2-1.3c-3.8-4.2-9.2-0.8-9.2-0.8V385z"/>
	<path class="st17" d="M650.1,359.9L650.1,359.9c-0.8-0.3-1.7-0.1-2.1,0.6l-5.5,8.3l-8.2,4.9c0,0-5.1,1.2-4.2,3
		c1,1.9,4.8-0.9,4.8-0.9l10.6-5.2l5.9-7.2C652.2,362.3,651.5,360.5,650.1,359.9z"/>
	<path class="st8" d="M657.1,419c0.7-0.8-0.6-2-0.9-2.3c-0.2-0.4,4.5,0.7,5.5,1s0.2,2.7-0.6,3.9c-0.9,1.2-1.9,4.9-2.3,5.8
		c-0.5,0.9-0.6,1.1-3,2.7c-2.5,1.5-1.5-2.5-1.5-2.5l-0.1-5.2c0,0-1.7-0.9-0.9-1.9s2,0.6,2,0.6S656.4,419.9,657.1,419z"/>
	<path class="st8" d="M649.1,355.2c0.1,0,0.7-1,0.8-1l0,0c3.3,0,6-2.7,6-6c0-3.3-2.7-6-6-6c-3.3,0-6,2.7-6,6c0,0,0,0,0,0
		C647,348.3,649.1,352,649.1,355.2z"/>
	<circle class="st8" cx="656.4" cy="343.5" r="4"/>
	<path class="st8" d="M655.4,337.3c-2.2,0-4,1.8-4,4c0,2.2,1.8,4,4,4c-1.7-0.5-2.9-2.1-2.9-3.8c0-2.2,1.8-3.9,4-3.9
		C656.2,337.4,655.8,337.3,655.4,337.3z"/>
	<path class="st8" d="M647.2,346.8v3.8l0,0h-5.8l0,0l0,0c0-2.1,1.7-3.8,3.8-3.8H647.2L647.2,346.8z"/>
</g>
</svg>
